<?xml version="1.0" encoding="UTF-8" standalone="no"?>
<svg
   xmlns:dc="http://purl.org/dc/elements/1.1/"
   xmlns:cc="http://creativecommons.org/ns#"
   xmlns:rdf="http://www.w3.org/1999/02/22-rdf-syntax-ns#"
   xmlns:svg="http://www.w3.org/2000/svg"
   xmlns="http://www.w3.org/2000/svg"
   viewBox="0 0 579.02667 251.41333"
   height="251.41333"
   width="579.02667"
   xml:space="preserve"
   id="svg2"
   version="1.1"><metadata
     id="metadata8"><rdf:RDF><cc:Work
         rdf:about=""><dc:format>image/svg+xml</dc:format><dc:type
           rdf:resource="http://purl.org/dc/dcmitype/StillImage" /></cc:Work></rdf:RDF></metadata><defs
     id="defs6" /><g
     transform="matrix(1.3333333,0,0,-1.3333333,0,251.41333)"
     id="g10"><g
       transform="scale(0.1)"
       id="g12"><path
         id="path14"
         style="fill:#ffffff;fill-opacity:1;fill-rule:nonzero;stroke:none"
         d="M 4342.65,0 H 0 V 1885.62 H 4342.65 V 0" /><path
         id="path16"
         style="fill:#cd1e25;fill-opacity:1;fill-rule:nonzero;stroke:none"
         d="m 1046.56,981.504 v 0 c -0.25,75.906 -29.76,91.026 -106.146,91.026 H 826.469 V 813.469 h 113.945 c 76.696,0 106.146,27.39 106.146,104.109 z M 707.836,707.25 v 458.05 c 0,7.13 6.242,13.37 13.391,13.37 h 231.66 c 134.683,0 213.173,-62.49 213.173,-197.166 V 917.578 C 1166.06,782 1087.88,707.09 953.188,707.09 l -245.352,0.16" /><path
         id="path18"
         style="fill:#231f20;fill-opacity:1;fill-rule:evenodd;stroke:none"
         d="m 1542.11,919.277 c 0,-76.718 30.36,-106.148 106.17,-106.148 h 26.76 c 76.71,0 106.14,29.43 106.14,106.148 v 53.504 c 0,76.729 -29.43,106.149 -106.14,106.149 h -26.76 c -75.81,0 -106.17,-29.42 -106.17,-106.149 v -53.504 z m 92.8,265.803 h 53.5 c 135.58,0 212.28,-77.6 212.28,-212.299 V 919.277 C 1900.69,784.59 1823.99,707 1688.41,707 h -53.5 c -134.69,0 -211.41,77.59 -211.41,212.277 v 53.504 c 0,134.699 76.72,212.299 211.41,212.299 v 0" /><path
         id="path20"
         style="fill:#231f20;fill-opacity:1;fill-rule:nonzero;stroke:none"
         d="m 2889.4,884.711 c 10.68,0 17.2,7.398 17.2,14.82 v 85.938 c 0,7.422 -6.52,14.821 -17.2,14.821 l -158.66,0.06 c 0,35.79 17.22,72.3 63.04,72.3 h 258.03 c 7.41,0 14.83,7.41 14.83,14.83 v 76.5 c 0,7.41 -7.42,14.83 -14.83,14.83 h -265.44 c -118.4,0 -174.28,-74.15 -174.28,-177.97 v -93.367 c 0,-140.914 63.03,-200.243 196.52,-200.243 h 243.2 c 7.41,0 14.83,7.77 14.83,14.84 v 76.43 c 0,7.41 -7.42,14.832 -14.83,14.832 h -243.2 c -38.7,0 -77.35,27.508 -77.35,71.418 l 158.14,-0.039" /><path
         id="path22"
         style="fill:#231f20;fill-opacity:1;fill-rule:nonzero;stroke:none"
         d="m 2494.01,1163.91 c 0,7.41 -7.77,14.82 -14.84,14.82 h -88.99 c -7.42,0 -14.82,-7.41 -14.82,-14.82 V 899.426 l -235.61,271.744 c -0.68,0.74 -1.36,1.35 -2.04,1.94 -2.86,3.28 -6.92,5.6 -11.03,5.6 h -17.98 l -0.01,0.06 h -74.41 c -7.4,0 -14.83,-7.42 -14.83,-14.82 l -0.13,-441.911 c 0,-7.41 7.77,-14.82 14.84,-14.82 h 88.99 c 7.42,0 14.83,7.41 14.83,14.82 v 264.484 l 237.16,-272.742 v 0 c 2.85,-3.722 7.25,-6.402 11.68,-6.402 h 18.01 v -0.039 h 74.39 c 7.43,0 14.83,7.41 14.83,14.832 l -0.04,441.738" /><path
         id="path24"
         style="fill:#231f20;fill-opacity:1;fill-rule:nonzero;stroke:none"
         d="m 1304.92,471.789 h -20 v 942.561 h 20 V 471.789" /></g></g></svg>